<svg xmlns="http://www.w3.org/2000/svg" viewBox="0 0 640 480" role="img" aria-label="Carrots for plov">
  <rect width="640" height="480" fill="#f3dfbd"/>
  <circle cx="102" cy="96" r="86" fill="#d6a24c" opacity=".26"/>
  <circle cx="532" cy="372" r="118" fill="#a4522b" opacity=".14"/>
  <g transform="translate(126 148)">
    <path d="M108 40c70 24 176 72 290 154-138 8-246-20-324-76C48 98 68 50 108 40Z" fill="#d8732d"/>
    <path d="M66 122c78 30 170 62 280 88-118 20-234 6-324-36-30-14 8-64 44-52Z" fill="#e99a3c"/>
    <path d="M130 32c-12-42 18-76 54-94-4 34 16 56 42 72-34 2-66 8-96 22Z" fill="#5f8c46"/>
    <path d="M156 34c16-42 58-58 102-52-26 22-28 52-20 82-24-18-52-28-82-30Z" fill="#6f9b4e"/>
    <path d="M142 104c46 20 104 40 174 58" fill="none" stroke="#b85427" stroke-width="8" stroke-linecap="round" opacity=".45"/>
    <path d="M106 148c38 14 88 28 150 40" fill="none" stroke="#b85427" stroke-width="8" stroke-linecap="round" opacity=".45"/>
  </g>
  <text x="48" y="76" fill="#241813" font-family="Georgia, serif" font-size="42" font-weight="700">Carrots</text>
  <text x="48" y="112" fill="#6f421f" font-family="Segoe UI, sans-serif" font-size="20">Color, sweetness, and identity.</text>
</svg>
