<svg xmlns="http://www.w3.org/2000/svg" viewBox="0 0 640 480" role="img" aria-label="Meat for plov">
  <rect width="640" height="480" fill="#f8ead6"/>
  <circle cx="518" cy="106" r="92" fill="#a4522b" opacity=".16"/>
  <circle cx="142" cy="382" r="110" fill="#d6a24c" opacity=".2"/>
  <g transform="translate(146 150)">
    <path d="M62 132c-24-66 34-122 122-122h86c82 0 134 62 118 128-18 78-122 102-210 88-58-10-100-38-116-94Z" fill="#7b3327"/>
    <path d="M124 88c24-28 72-42 126-34 54 8 96 34 112 72-58-22-152-32-238-38Z" fill="#b24b32" opacity=".78"/>
    <path d="M104 160c72 36 176 44 250 6" fill="none" stroke="#d6a24c" stroke-width="14" stroke-linecap="round" opacity=".45"/>
    <ellipse cx="158" cy="124" rx="42" ry="26" fill="#f1d6bc" opacity=".34"/>
    <ellipse cx="292" cy="116" rx="52" ry="30" fill="#f1d6bc" opacity=".22"/>
  </g>
  <text x="48" y="76" fill="#241813" font-family="Georgia, serif" font-size="42" font-weight="700">Meat</text>
  <text x="48" y="112" fill="#6f421f" font-family="Segoe UI, sans-serif" font-size="20">Browning gives the zirvak depth.</text>
</svg>
