<svg xmlns="http://www.w3.org/2000/svg" viewBox="0 0 640 480" role="img" aria-label="Samarkand style osh">
  <rect width="640" height="480" fill="#f5e1c2"/>
  <circle cx="118" cy="104" r="112" fill="#d6a24c" opacity=".2"/>
  <ellipse cx="320" cy="292" rx="234" ry="86" fill="#6f421f" opacity=".24"/>
  <ellipse cx="320" cy="250" rx="214" ry="94" fill="#f8f0df" stroke="#8d5322" stroke-width="12"/>
  <path d="M142 250c78-54 272-64 358-12-54 18-138 18-210 12-70-6-112-6-148 0Z" fill="#f2dfbd"/>
  <path d="M176 284c96 28 220 34 310-8-90 64-238 72-310 8Z" fill="#d9953b"/>
  <path d="M226 214c54-34 142-42 202-12-44 34-142 42-202 12Z" fill="#82372d"/>
  <circle cx="320" cy="232" r="28" fill="#fff4df" stroke="#d8bc96" stroke-width="6"/>
  <text x="48" y="78" fill="#241813" font-family="Georgia, serif" font-size="42" font-weight="700">Samarkand osh</text>
  <text x="48" y="114" fill="#6f421f" font-family="Segoe UI, sans-serif" font-size="20">Layered and visually distinct.</text>
</svg>
